<?xml version="1.0" standalone="no"?>
<!DOCTYPE svg PUBLIC "-//W3C//DTD SVG 20010904//EN"
 "http://www.w3.org/TR/2001/REC-SVG-20010904/DTD/svg10.dtd">
<svg version="1.0" xmlns="http://www.w3.org/2000/svg"
 width="108.000000pt" height="131.000000pt" viewBox="0 0 108.000000 131.000000"
 preserveAspectRatio="xMidYMid meet">

<g transform="translate(0.000000,131.000000) scale(0.100000,-0.100000)"
fill="#000000" stroke="none">
<path d="M157 1063 c-11 -11 -8 -418 4 -475 6 -29 25 -75 41 -101 45 -71 258
-242 338 -272 34 -12 296 189 351 270 45 65 49 97 49 349 l0 236 -186 0 -186
0 6 -22 c3 -13 6 -34 6 -47 0 -19 3 -21 14 -12 7 6 16 25 20 41 8 40 17 37 42
-13 12 -23 45 -87 74 -143 37 -71 54 -116 58 -152 2 -29 8 -52 13 -52 5 0 9 7
9 16 0 8 5 12 10 9 6 -3 10 -41 10 -83 0 -91 -22 -147 -78 -206 -39 -40 -122
-86 -158 -86 -26 0 -30 16 -41 190 l-8 125 -6 -75 c-4 -41 -7 -110 -8 -152 0
-42 -5 -79 -10 -82 -18 -12 -103 28 -150 70 -60 54 -89 118 -101 226 -9 81 -9
95 12 176 13 50 23 53 33 10 l7 -33 12 50 c15 62 26 83 87 166 27 37 49 69 49
73 0 8 -305 8 -313 -1z"/>
</g>
</svg>
